<?xml version="1.0" encoding="utf-8"?>
<!-- Generator: Adobe Illustrator 24.3.0, SVG Export Plug-In . SVG Version: 6.00 Build 0)  -->
<svg version="1.1" id="Layer_1" xmlns="http://www.w3.org/2000/svg" xmlns:xlink="http://www.w3.org/1999/xlink" x="0px" y="0px"
	 viewBox="0 0 100 100" style="enable-background:new 0 0 100 100;" xml:space="preserve">
<style type="text/css">
	.st0{fill:#FFFFFF;}
	.st1{fill-rule:evenodd;clip-rule:evenodd;fill:#FFFFFF;}
</style>
<g>
	<path class="st0" d="M68.43,100H31.57C14.16,100,0,85.84,0,68.43V31.56C0,14.16,14.16,0,31.57,0h36.87C85.84,0,100,14.16,100,31.56
		v36.87C100,85.84,85.84,100,68.43,100z M31.57,3.84c-15.29,0-27.72,12.44-27.72,27.72v36.87c0,15.29,12.43,27.72,27.72,27.72h36.87
		c15.29,0,27.72-12.44,27.72-27.72V31.56c0-15.28-12.43-27.72-27.72-27.72H31.57z"/>
	<path class="st0" d="M64,53.53l1.67-10.89H55.22v-7.06c0-2.98,1.46-5.88,6.14-5.88h4.75v-9.27c0,0-4.31-0.74-8.43-0.74
		c-8.6,0-14.22,5.21-14.22,14.65v8.3h-9.56v10.89h9.56v26.32c1.92,0.3,3.88,0.46,5.88,0.46c2,0,3.97-0.16,5.88-0.46V53.53H64z"/>
</g>
</svg>
