<?xml version="1.0" encoding="utf-8"?>
<!-- Generator: Adobe Illustrator 24.3.0, SVG Export Plug-In . SVG Version: 6.00 Build 0)  -->
<svg version="1.1" id="Layer_1" xmlns="http://www.w3.org/2000/svg" xmlns:xlink="http://www.w3.org/1999/xlink" x="0px" y="0px"
	 viewBox="0 0 100 100" style="enable-background:new 0 0 100 100;" xml:space="preserve">
<style type="text/css">
	.st0{fill:#FFFFFF;}
	.st1{fill-rule:evenodd;clip-rule:evenodd;fill:#FFFFFF;}
</style>
<g>
	<g>
		<g>
			<path class="st0" d="M67.45,28.81c-2.13,0-3.86,1.73-3.86,3.86c0,2.13,1.73,3.86,3.86,3.86c2.13,0,3.86-1.73,3.86-3.86
				C71.31,30.54,69.58,28.81,67.45,28.81z"/>
			<path class="st0" d="M50.27,33.77c-8.95,0-16.23,7.28-16.23,16.23c0,8.95,7.28,16.23,16.23,16.23c8.95,0,16.23-7.28,16.23-16.23
				C66.5,41.05,59.22,33.77,50.27,33.77z M50.27,60.4c-5.73,0-10.4-4.66-10.4-10.4s4.66-10.4,10.4-10.4c5.73,0,10.4,4.66,10.4,10.4
				S56,60.4,50.27,60.4z"/>
			<path class="st0" d="M63.16,82.96H36.84c-10.92,0-19.8-8.88-19.8-19.8V36.84c0-10.92,8.88-19.8,19.8-19.8h26.31
				c10.92,0,19.8,8.88,19.8,19.8v26.32C82.96,74.07,74.07,82.96,63.16,82.96z M36.84,23.24c-7.5,0-13.6,6.1-13.6,13.6v26.32
				c0,7.5,6.1,13.6,13.6,13.6h26.31c7.5,0,13.6-6.1,13.6-13.6V36.84c0-7.5-6.1-13.6-13.6-13.6H36.84z"/>
		</g>
	</g>
	<path class="st0" d="M68.43,100H31.57C14.16,100,0,85.84,0,68.43V31.56C0,14.16,14.16,0,31.57,0h36.87C85.84,0,100,14.16,100,31.56
		v36.87C100,85.84,85.84,100,68.43,100z M31.57,3.84c-15.29,0-27.72,12.44-27.72,27.72v36.87c0,15.29,12.43,27.72,27.72,27.72h36.87
		c15.29,0,27.72-12.44,27.72-27.72V31.56c0-15.28-12.43-27.72-27.72-27.72H31.57z"/>
</g>
</svg>
