<?xml version="1.0" encoding="utf-8"?>
<!-- Generator: Adobe Illustrator 24.3.0, SVG Export Plug-In . SVG Version: 6.00 Build 0)  -->
<svg version="1.1" id="Layer_1" xmlns="http://www.w3.org/2000/svg" xmlns:xlink="http://www.w3.org/1999/xlink" x="0px" y="0px"
	 viewBox="0 0 100 100" style="enable-background:new 0 0 100 100;" xml:space="preserve">
<style type="text/css">
	.st0{fill:#FFFFFF;}
</style>
<g>
	<g>
		<path class="st0" d="M24.63,41.2h10.89v34.97H24.63V41.2z M30.08,23.82c3.48,0,6.3,2.82,6.3,6.3c0,3.48-2.82,6.31-6.3,6.31
			c-3.49,0-6.31-2.83-6.31-6.31C23.76,26.65,26.58,23.82,30.08,23.82"/>
		<path class="st0" d="M42.34,41.2h10.43v4.78h0.14c1.45-2.75,5-5.65,10.29-5.65c11.01,0,13.04,7.24,13.04,16.66v19.18H65.38v-17
			c0-4.06-0.08-9.27-5.65-9.27c-5.66,0-6.52,4.42-6.52,8.98v17.3H42.34V41.2z"/>
	</g>
	<path class="st0" d="M68.43,100H31.57C14.16,100,0,85.84,0,68.43V31.56C0,14.16,14.16,0,31.57,0h36.87C85.84,0,100,14.16,100,31.56
		v36.87C100,85.84,85.84,100,68.43,100z M31.57,3.84c-15.29,0-27.72,12.44-27.72,27.72v36.87c0,15.29,12.43,27.72,27.72,27.72h36.87
		c15.29,0,27.72-12.44,27.72-27.72V31.56c0-15.28-12.43-27.72-27.72-27.72H31.57z"/>
</g>
</svg>
