<?xml version="1.0" encoding="utf-8"?>
<!-- Generator: Adobe Illustrator 24.3.0, SVG Export Plug-In . SVG Version: 6.00 Build 0)  -->
<svg version="1.1" id="Layer_1" xmlns="http://www.w3.org/2000/svg" xmlns:xlink="http://www.w3.org/1999/xlink" x="0px" y="0px"
	 viewBox="0 0 100 100" style="enable-background:new 0 0 100 100;" xml:space="preserve">
<style type="text/css">
	.st0{fill:#FFFFFF;}
	.st1{fill-rule:evenodd;clip-rule:evenodd;fill:#FFFFFF;}
</style>
<g>
	<path class="st0" d="M80.4,30.82c-1.95,0.88-4.1,1.42-6.2,1.77c1-0.17,2.46-1.97,3.05-2.7c0.9-1.11,1.64-2.38,2.06-3.75
		c0.05-0.11,0.09-0.24-0.01-0.32c-0.13-0.05-0.22-0.03-0.33,0.03c-2.34,1.26-4.77,2.17-7.35,2.81c-0.21,0.05-0.37,0-0.51-0.13
		c-0.21-0.24-0.41-0.47-0.64-0.66c-1.08-0.92-2.25-1.65-3.56-2.18c-1.72-0.7-3.61-1-5.46-0.88c-1.81,0.12-3.58,0.63-5.18,1.46
		c-1.61,0.84-3.04,2.01-4.18,3.41c-1.18,1.46-2.05,3.18-2.5,5c-0.43,1.76-0.39,3.5-0.13,5.28c0.04,0.29,0.01,0.33-0.25,0.29
		c-10.1-1.5-18.47-5.12-25.26-12.86c-0.29-0.34-0.45-0.34-0.7,0.03c-2.97,4.46-1.53,11.62,2.18,15.13c0.5,0.47,1,0.94,1.55,1.37
		c-0.2,0.04-2.67-0.23-4.87-1.37c-0.29-0.19-0.44-0.08-0.47,0.25c-0.03,0.48,0.01,0.92,0.08,1.45c0.57,4.52,3.7,8.7,7.98,10.33
		c0.51,0.21,1.07,0.4,1.62,0.5c-0.98,0.21-1.98,0.37-4.78,0.15c-0.35-0.07-0.48,0.11-0.35,0.44c2.1,5.73,6.64,7.44,10.04,8.41
		c0.46,0.08,0.91,0.08,1.37,0.19c-0.03,0.04-0.05,0.04-0.08,0.08c-1.13,1.72-5.04,3-6.86,3.64c-3.31,1.16-6.92,1.68-10.42,1.33
		c-0.56-0.08-0.68-0.08-0.83,0c-0.15,0.09-0.02,0.23,0.16,0.37c0.71,0.47,1.43,0.88,2.17,1.29c2.22,1.18,4.54,2.12,6.96,2.79
		c12.52,3.46,26.61,0.92,36.01-8.42c7.38-7.33,9.97-17.44,9.97-27.57c0-0.4,0.47-0.62,0.75-0.82c1.92-1.44,3.47-3.17,4.9-5.1
		c0.32-0.43,0.32-0.82,0.32-0.98c0-0.03,0-0.05,0-0.05C80.66,30.66,80.65,30.7,80.4,30.82z"/>
	<path class="st0" d="M68.43,100H31.57C14.16,100,0,85.84,0,68.43V31.56C0,14.16,14.16,0,31.57,0h36.87C85.84,0,100,14.16,100,31.56
		v36.87C100,85.84,85.84,100,68.43,100z M31.57,3.84c-15.29,0-27.72,12.44-27.72,27.72v36.87c0,15.29,12.43,27.72,27.72,27.72h36.87
		c15.29,0,27.72-12.44,27.72-27.72V31.56c0-15.28-12.43-27.72-27.72-27.72H31.57z"/>
</g>
</svg>
