<?xml version="1.0" encoding="utf-8"?>
<!-- Generator: Adobe Illustrator 24.3.0, SVG Export Plug-In . SVG Version: 6.00 Build 0)  -->
<svg version="1.1" id="Layer_1" xmlns="http://www.w3.org/2000/svg" xmlns:xlink="http://www.w3.org/1999/xlink" x="0px" y="0px"
	 viewBox="0 0 100 100" style="enable-background:new 0 0 100 100;" xml:space="preserve">
<style type="text/css">
	.st0{fill:#FFFFFF;}
	.st1{fill-rule:evenodd;clip-rule:evenodd;fill:#FFFFFF;}
</style>
<g>
	<g>
		<path class="st0" d="M17.39,82.69l4.69-17.49c-2.65-4.79-4.05-10.15-4.05-15.6c0-17.8,14.48-32.29,32.29-32.29
			c17.8,0,32.29,14.49,32.29,32.29c0,17.8-14.48,32.29-32.29,32.29c-5.34,0-10.62-1.35-15.35-3.91L17.39,82.69z M35.85,71.43
			l1.11,0.66c4.06,2.42,8.69,3.7,13.37,3.7c14.44,0,26.19-11.75,26.19-26.19S64.76,23.42,50.32,23.42
			c-14.44,0-26.18,11.75-26.18,26.19c0,4.77,1.32,9.46,3.83,13.58l0.68,1.11l-2.62,9.76L35.85,71.43z"/>
		<path class="st1" d="M62.33,54.09c-1.33-0.8-3.06-1.68-4.62-1.04c-1.2,0.49-1.97,2.37-2.75,3.33c-0.4,0.49-0.88,0.57-1.49,0.32
			c-4.51-1.8-7.96-4.81-10.45-8.95c-0.42-0.64-0.35-1.15,0.16-1.75c0.75-0.88,1.7-1.89,1.9-3.08c0.2-1.19-0.36-2.59-0.85-3.65
			c-0.63-1.36-1.33-3.29-2.69-4.06c-1.25-0.71-2.9-0.31-4.01,0.6c-1.92,1.56-2.85,4.02-2.82,6.45c0.01,0.69,0.09,1.38,0.25,2.05
			c0.39,1.6,1.13,3.1,1.96,4.52c0.63,1.07,1.31,2.11,2.05,3.12c2.41,3.28,5.41,6.12,8.89,8.25c1.74,1.06,3.61,2,5.54,2.64
			c2.17,0.72,4.11,1.46,6.45,1.02c2.45-0.47,4.87-1.99,5.85-4.35c0.29-0.7,0.43-1.48,0.27-2.22C65.64,55.74,63.57,54.83,62.33,54.09
			z"/>
	</g>
	<path class="st0" d="M68.43,100H31.57C14.16,100,0,85.84,0,68.43V31.56C0,14.16,14.16,0,31.57,0h36.87C85.84,0,100,14.16,100,31.56
		v36.87C100,85.84,85.84,100,68.43,100z M31.57,3.84c-15.29,0-27.72,12.44-27.72,27.72v36.87c0,15.29,12.43,27.72,27.72,27.72h36.87
		c15.29,0,27.72-12.44,27.72-27.72V31.56c0-15.28-12.43-27.72-27.72-27.72H31.57z"/>
</g>
</svg>
