<svg id="Layer_1" data-name="Layer 1" xmlns="http://www.w3.org/2000/svg" viewBox="0 0 100 100"><defs><style>.cls-1{fill:#fff;}</style></defs><path class="cls-1" d="M80.76,42a13.5,13.5,0,0,0-13.5-13.5H32.74A13.5,13.5,0,0,0,19.24,42V58a13.5,13.5,0,0,0,13.5,13.5H67.26A13.5,13.5,0,0,0,80.76,58ZM60.46,51.2,45,58.86c-.61.33-2.67-.11-2.67-.8V42.34c0-.7,2.08-1.14,2.69-.79l14.81,8.06C60.44,50,61.09,50.86,60.46,51.2Z"/><path class="cls-1" d="M68.43,100H31.57A31.6,31.6,0,0,1,0,68.43V31.56A31.6,31.6,0,0,1,31.57,0H68.43A31.6,31.6,0,0,1,100,31.56V68.43A31.6,31.6,0,0,1,68.43,100ZM31.57,3.84A27.76,27.76,0,0,0,3.84,31.56V68.43A27.76,27.76,0,0,0,31.57,96.16H68.43A27.76,27.76,0,0,0,96.16,68.43V31.56A27.76,27.76,0,0,0,68.43,3.84Z"/></svg>